<svg width="24" height="24" viewBox="0 0 24 24" fill="none" xmlns="http://www.w3.org/2000/svg">
<path d="M1 5H23V19H1V5Z" fill="#3F51B5"/>
<path d="M1 7.108L11.405 13.4675L12.9695 10.9075L3.304 5H1V7.108Z" fill="white"/>
<path d="M22.9998 5H21.1953L11.5303 10.907L13.0943 13.4675L22.9998 7.413V5Z" fill="white"/>
<path d="M13.0943 10.1367L11.5303 12.6967L21.8453 19.0012H22.9998V16.1907L13.0943 10.1367Z" fill="white"/>
<path d="M1 16.4967V19.0012H2.655L12.9695 12.6972L11.4055 10.1367L1 16.4967Z" fill="white"/>
<path d="M1 10H23V14H1V10Z" fill="white"/>
<path d="M10 5H14V19H10V5Z" fill="white"/>
<path d="M8.609 10L1 5.3495V6.5215L6.691 10H8.609ZM22.1545 5L13.9735 10H15.891L23 5.6555V5H22.1545ZM16.541 14L23 17.9475V16.7755L18.4585 14H16.541ZM7.959 14L1 18.253V19H1.696L9.8765 14H7.959ZM1 11H23V13H1V11Z" fill="#E53935"/>
<path d="M11 5H13V19H11V5Z" fill="#E53935"/>
</svg>
