<svg width="178" height="41" viewBox="0 0 178 41" fill="none" xmlns="http://www.w3.org/2000/svg">
<path d="M18.3998 21.0016C18.3998 20.801 18.2846 20.633 18.1209 20.5418L18.1241 20.5365L7.51077 14.7008L7.5001 14.7061C7.4137 14.6453 7.31397 14.6016 7.19984 14.6016C6.90544 14.6016 6.6665 14.8405 6.6665 15.1349C6.6665 15.1354 6.66704 15.136 6.66704 15.137L6.6665 21.0016V26.8661C6.6665 26.8672 6.6665 26.8677 6.6665 26.8682C6.6665 27.1626 6.90544 27.4016 7.19984 27.4016C7.31397 27.4016 7.4137 27.3578 7.50064 27.297L7.51077 27.3024L18.1241 21.4666L18.1209 21.4613C18.2846 21.3701 18.3998 21.2021 18.3998 21.0016Z" fill="#716F6F"/>
<path d="M17.1984 16.7684C17.0163 16.1783 16.765 15.6502 16.4445 15.184C16.1313 14.7105 15.7525 14.3062 15.3081 13.9712C14.8711 13.6361 14.3684 13.3848 13.8003 13.2172C13.2321 13.0424 12.6129 12.955 11.9427 12.955C10.7408 12.955 9.67002 13.2573 8.73033 13.8619C7.79065 14.4665 7.05128 15.3552 6.51224 16.528C5.98048 17.6935 5.7146 19.1139 5.7146 20.7893C5.7146 22.4793 5.98048 23.9107 6.51224 25.0835C7.044 26.2563 7.78336 27.1486 8.73033 27.7605C9.6773 28.3651 10.7772 28.6674 12.0302 28.6674C13.1665 28.6674 14.1499 28.4489 14.9803 28.0118C15.818 27.5747 16.4627 26.9556 16.9143 26.1543C17.366 25.3457 17.5918 24.3987 17.5918 23.3134L18.5096 23.4554H12.4344V20.2867H21.5144V22.9747C21.5144 24.8904 21.1065 26.5476 20.2906 27.9462C19.4748 29.3448 18.353 30.4229 16.9253 31.1805C15.4975 31.9308 13.8585 32.3059 12.0083 32.3059C9.94682 32.3059 8.13666 31.8434 6.5778 30.9183C5.02622 29.9859 3.81337 28.6638 2.93925 26.9519C2.07241 25.2328 1.63899 23.1932 1.63899 20.833C1.63899 19.0265 1.89394 17.413 2.40385 15.9926C2.92104 14.5721 3.64219 13.3666 4.56731 12.3759C5.49242 11.3779 6.5778 10.6203 7.82343 10.1031C9.06906 9.57867 10.424 9.31643 11.8881 9.31643C13.1265 9.31643 14.281 9.49854 15.3518 9.86276C16.4226 10.2197 17.3733 10.7296 18.2037 11.3925C19.0414 12.0554 19.7297 12.8421 20.2688 13.7526C20.8078 14.6632 21.1611 15.6684 21.3287 16.7684H17.1984Z" fill="#7A5AF8"/>
<path d="M47.5096 16.7973C47.3515 16.2591 47.1333 15.7774 46.855 15.3522C46.583 14.9203 46.2541 14.5515 45.8683 14.2458C45.4888 13.9402 45.0524 13.711 44.5591 13.5581C44.0658 13.3987 43.5282 13.3189 42.9463 13.3189C41.9027 13.3189 40.973 13.5947 40.1571 14.1462C39.3412 14.6977 38.6993 15.5083 38.2312 16.5781C37.7695 17.6412 37.5387 18.9369 37.5387 20.4651C37.5387 22.0066 37.7695 23.3123 38.2312 24.3821C38.6929 25.4518 39.3349 26.2658 40.1571 26.8239C40.9793 27.3754 41.9343 27.6512 43.0222 27.6512C44.0089 27.6512 44.8627 27.4518 45.5837 27.0532C46.311 26.6545 46.8708 26.0897 47.2629 25.3588C47.655 24.6213 47.8511 23.7575 47.8511 22.7674L48.648 22.897H43.3732V20.0066H51.257V22.4585C51.257 24.206 50.9028 25.7176 50.1944 26.9934C49.486 28.2691 48.512 29.2525 47.2724 29.9435C46.0328 30.6279 44.6097 30.9701 43.0032 30.9701C41.2133 30.9701 39.6416 30.5482 38.2882 29.7043C36.941 28.8538 35.8879 27.6478 35.129 26.0864C34.3763 24.5183 34 22.6578 34 20.505C34 18.8571 34.2214 17.3854 34.6641 16.0897C35.1131 14.794 35.7393 13.6944 36.5425 12.7907C37.3458 11.8804 38.2882 11.1894 39.3697 10.7176C40.4512 10.2392 41.6276 10 42.8989 10C43.9741 10 44.9765 10.1661 45.9063 10.4983C46.836 10.8239 47.6614 11.289 48.3824 11.8937C49.1097 12.4983 49.7074 13.2159 50.1754 14.0465C50.6435 14.8771 50.9502 15.794 51.0957 16.7973H47.5096Z" fill="#7A5AF8"/>
<path d="M58.1801 10.2791L59.2217 30.6914L52.7217 31L54.6604 10.2791H58.1801Z" fill="#7A5AF8"/>
<path d="M68.5756 30.691H61.9916V10.2791H68.7084C70.6375 10.2791 72.2945 10.6877 73.6796 11.505C75.0711 12.3156 76.1399 13.4817 76.8863 15.0033C77.6326 16.5249 78.0057 18.3455 78.0057 20.4651C78.0057 22.5914 77.6294 24.4186 76.8768 25.9468C76.1305 27.4751 75.0521 28.6478 73.6417 29.4651C72.2376 30.2824 70.5489 30.691 68.5756 30.691ZM65.5113 27.4917H68.4048C69.7583 27.4917 70.8873 27.2326 71.7917 26.7143C72.6961 26.1894 73.3761 25.4086 73.8314 24.3721C74.2868 23.3289 74.5145 22.0266 74.5145 20.4651C74.5145 18.9037 74.2868 17.608 73.8314 16.5781C73.3761 15.5415 72.7025 14.7674 71.8107 14.2558C70.9252 13.7375 69.8247 13.4784 68.5092 13.4784H65.5113V27.4917Z" fill="#7A5AF8"/>
<path d="M91.909 15.8904C91.8205 15.0199 91.4473 14.3422 90.7896 13.8571C90.1381 13.3721 89.2906 13.1296 88.247 13.1296C87.5134 13.1296 86.884 13.2458 86.3591 13.4784C85.8341 13.711 85.4325 14.0266 85.1542 14.4252C84.8759 14.8239 84.7336 15.2791 84.7273 15.7907C84.7273 16.2159 84.819 16.5847 85.0024 16.897C85.1922 17.2093 85.4483 17.4751 85.7709 17.6944C86.0935 17.907 86.4508 18.0864 86.8429 18.2326C87.2351 18.3787 87.6304 18.5017 88.0288 18.6013L89.8503 19.0797C90.584 19.2591 91.2892 19.5017 91.9659 19.8073C92.649 20.113 93.2593 20.4983 93.797 20.9635C94.3409 21.4286 94.771 21.99 95.0872 22.6478C95.4034 23.3056 95.5615 24.0764 95.5615 24.9601C95.5615 26.1561 95.2706 27.2093 94.6887 28.1196C94.1069 29.0233 93.2657 29.7309 92.1652 30.2425C91.071 30.7475 89.746 31 88.1901 31C86.6785 31 85.3661 30.7542 84.253 30.2625C83.1461 29.7708 82.2797 29.0532 81.6535 28.1096C81.0337 27.1661 80.6985 26.0166 80.6479 24.6611H84.1107C84.1613 25.3721 84.37 25.9635 84.7368 26.4352C85.1036 26.907 85.5812 27.2591 86.1694 27.4917C86.7639 27.7243 87.428 27.8405 88.1616 27.8405C88.9269 27.8405 89.5973 27.7209 90.1729 27.4817C90.7548 27.2359 91.2101 26.897 91.539 26.4651C91.8679 26.0266 92.0355 25.5149 92.0418 24.9302C92.0355 24.3987 91.8869 23.9601 91.596 23.6146C91.305 23.2625 90.8971 22.9701 90.3721 22.7375C89.8535 22.4983 89.2463 22.2857 88.5506 22.0997L86.3401 21.5017C84.74 21.0698 83.475 20.4153 82.5453 19.5382C81.6219 18.6545 81.1602 17.4817 81.1602 16.0199C81.1602 14.8173 81.4701 13.7641 82.0899 12.8605C82.7161 11.9568 83.5667 11.2558 84.6419 10.7575C85.7171 10.2525 86.9346 10 88.2945 10C89.6732 10 90.8813 10.2525 91.9185 10.7575C92.9621 11.2558 93.7811 11.9502 94.3757 12.8405C94.9702 13.7243 95.2769 14.7409 95.2959 15.8904H91.909Z" fill="#7A5AF8"/>
<path d="M98.6994 30.691V10.2791H102.219V18.9203H111.222V10.2791H114.752V30.691H111.222V22.0199H102.219V30.691H98.6994Z" fill="#7A5AF8"/>
<path d="M121.075 30.691H117.318L124.158 10.2791H128.503L135.353 30.691H131.596L126.406 14.4651H126.255L121.075 30.691ZM121.198 22.6877H131.444V25.6578H121.198V22.6877Z" fill="#7A5AF8"/>
<path d="M137.912 30.691V10.2791H145.198C146.69 10.2791 147.943 10.5515 148.955 11.0963C149.973 11.6412 150.741 12.4053 151.26 13.3887C151.785 14.3654 152.048 15.505 152.048 16.8073C152.048 18.1163 151.782 19.2525 151.251 20.2159C150.726 21.1728 149.951 21.9136 148.926 22.4385C147.902 22.9568 146.643 23.2159 145.15 23.2159H139.961V20.1462H144.676C145.549 20.1462 146.264 20.0199 146.82 19.7674C147.377 19.5083 147.788 19.1329 148.053 18.6412C148.325 18.1429 148.461 17.5316 148.461 16.8073C148.461 16.0831 148.325 15.4651 148.053 14.9535C147.781 14.4352 147.367 14.0432 146.811 13.7774C146.254 13.505 145.536 13.3688 144.657 13.3688H141.431V30.691H137.912ZM147.949 21.4419L152.759 30.691H148.831L144.107 21.4419H147.949Z" fill="#7A5AF8"/>
<path d="M155.287 30.691V10.2791H167.924L167.27 18.9203L158.807 13.3787V18.9203H167.27L168 24.3721L158.807 22.0199V27.5914L168 24.3721V30.691H155.287Z" fill="#7A5AF8"/>
</svg>
