<svg width="21" height="24" viewBox="0 0 21 24" fill="none" xmlns="http://www.w3.org/2000/svg">
<path d="M16.1984 7.76836C16.0163 7.17832 15.765 6.6502 15.4445 6.184C15.1313 5.71052 14.7525 5.30624 14.3081 4.97115C13.8711 4.63607 13.3684 4.38476 12.8003 4.21722C12.2321 4.0424 11.6129 3.95498 10.9427 3.95498C9.74082 3.95498 8.67002 4.25729 7.73033 4.86189C6.79065 5.46649 6.05128 6.35519 5.51224 7.52797C4.98048 8.69347 4.7146 10.1139 4.7146 11.7893C4.7146 13.4793 4.98048 14.9107 5.51224 16.0835C6.044 17.2563 6.78336 18.1486 7.73033 18.7605C8.6773 19.3651 9.77724 19.6674 11.0302 19.6674C12.1665 19.6674 13.1499 19.4489 13.9803 19.0118C14.818 18.5747 15.4627 17.9556 15.9143 17.1543C16.366 16.3457 16.5918 15.3987 16.5918 14.3134L17.5096 14.4554H11.4344V11.2867H20.5144V13.9747C20.5144 15.8904 20.1065 17.5476 19.2906 18.9462C18.4748 20.3448 17.353 21.4229 15.9253 22.1805C14.4975 22.9308 12.8585 23.3059 11.0083 23.3059C8.94682 23.3059 7.13666 22.8434 5.5778 21.9183C4.02622 20.9859 2.81337 19.6638 1.93925 17.9519C1.07241 16.2328 0.638986 14.1932 0.638986 11.833C0.638986 10.0265 0.893939 8.41302 1.40385 6.99257C1.92104 5.57212 2.64219 4.36655 3.56731 3.37587C4.49242 2.37791 5.5778 1.62034 6.82343 1.10315C8.06906 0.578671 9.42395 0.316433 10.8881 0.316433C12.1265 0.316433 13.281 0.498543 14.3518 0.862762C15.4226 1.2197 16.3733 1.7296 17.2037 2.39248C18.0414 3.05536 18.7297 3.84207 19.2688 4.75262C19.8078 5.66317 20.1611 6.66842 20.3287 7.76836H16.1984Z" fill="#7A5AF8"/>
</svg>
